# xmcd
#
# Track frame offsets:
#	150
#	10315
#	21058
#	38865
#	51810
#	67830
#	80955
#	91565
#	104655
#	115842
#	132705
#	148813
#	161446
#	174599
#	198150
#	218381
#	236304
#	249471
#
# Disc length: 3542 seconds
#
# Revision: 1
# Processed by: cddbd v1.5.2PL0 Copyright (c) Steve Scherf et al.
# Submitted via: audiograbber 1.83.01
#
DISCID=ee0dd412
DTITLE=Ferlin Husky - Gone
DYEAR=2007
DGENRE=Country
TTITLE0=Gone
TTITLE1=Wings Of A Dove
TTITLE2=Sunday Morning Comin´Down
TTITLE3=Don´t Fall Asleep At The Wheel
TTITLE4=Truck Driver´s Blues
TTITLE5=Room Full O Roses
TTITLE6=She Called Me Baby
TTITLE7=I´d Be A Legend In My Time
TTITLE8=San Antone Rose
TTITLE9=For The Good Times
TTITLE10=You Needed Me
TTITLE11=I Can´t Stop Loving You
TTITLE12=Behind Closed Doors
TTITLE13=Teddy Bear
TTITLE14=Litle Joe
TTITLE15=Concoy
TTITLE16=Fallen Star
TTITLE17=Blues In My Heart
EXTD=
EXTT0=
EXTT1=
EXTT2=
EXTT3=
EXTT4=
EXTT5=
EXTT6=
EXTT7=
EXTT8=
EXTT9=
EXTT10=
EXTT11=
EXTT12=
EXTT13=
EXTT14=
EXTT15=
EXTT16=
EXTT17=
PLAYORDER=
